<?xml version="1.0" encoding="UTF-8" standalone="no"?>
<svg
   width="59"
   height="57"
   viewBox="0 0 59 57"
   fill="none"
   version="1.1"
   id="svg28"
   sodipodi:docname="favicon.svg"
   inkscape:version="1.1 (c68e22c387, 2021-05-23)"
   xmlns:inkscape="http://www.inkscape.org/namespaces/inkscape"
   xmlns:sodipodi="http://sodipodi.sourceforge.net/DTD/sodipodi-0.dtd"
   xmlns:xlink="http://www.w3.org/1999/xlink"
   xmlns="http://www.w3.org/2000/svg"
   xmlns:svg="http://www.w3.org/2000/svg">
  <sodipodi:namedview
     id="namedview30"
     pagecolor="#ffffff"
     bordercolor="#666666"
     borderopacity="1.0"
     inkscape:pageshadow="2"
     inkscape:pageopacity="0.0"
     inkscape:pagecheckerboard="0"
     showgrid="false"
     inkscape:lockguides="false"
     inkscape:zoom="5.6568543"
     inkscape:cx="90.509668"
     inkscape:cy="22.539029"
     inkscape:window-width="1920"
     inkscape:window-height="1023"
     inkscape:window-x="0"
     inkscape:window-y="0"
     inkscape:window-maximized="1"
     inkscape:current-layer="svg28" />
  <g
     filter="url(#filter0_d)"
     id="g4">
    <path
       d="M 5.72302,10.3894 V 5.72864 C 5.72302,3.66937 7.39239,2 9.45166,2 H 49.5346 c 2.0592,0 3.7286,1.66937 3.7286,3.72864 V 31.8291 c 0,2.0593 -1.6694,3.7287 -3.7286,3.7287 h -6.5252 l 2.1807,10.1765 c 0.1906,0.8895 -0.8753,1.4973 -1.5437,0.8803 L 33.6878,37.4221 H 9.45166 c -2.05927,0 -3.72864,-1.6694 -3.72864,-3.7286 V 10.3894"
       stroke="url(#paint0_linear)"
       stroke-width="2.79648"
       id="path2"
       sodipodi:nodetypes="cssssssccccssc" />
  </g>
  <defs
     id="defs26">
    <filter
       id="filter0_d"
       x="0.324829"
       y="0.601807"
       width="58.3367"
       height="55.6676"
       filterUnits="userSpaceOnUse"
       color-interpolation-filters="sRGB">
      <feFlood
         flood-opacity="0"
         result="BackgroundImageFix"
         id="feFlood6" />
      <feColorMatrix
         in="SourceAlpha"
         type="matrix"
         values="0 0 0 0 0 0 0 0 0 0 0 0 0 0 0 0 0 0 127 0"
         id="feColorMatrix8" />
      <feOffset
         dy="4"
         id="feOffset10" />
      <feGaussianBlur
         stdDeviation="2"
         id="feGaussianBlur12" />
      <feColorMatrix
         type="matrix"
         values="0 0 0 0 0 0 0 0 0 0 0 0 0 0 0 0 0 0 0.25 0"
         id="feColorMatrix14" />
      <feBlend
         mode="normal"
         in2="BackgroundImageFix"
         result="effect1_dropShadow"
         id="feBlend16" />
      <feBlend
         mode="normal"
         in="SourceGraphic"
         in2="effect1_dropShadow"
         result="shape"
         id="feBlend18" />
    </filter>
    <linearGradient
       id="paint0_linear"
       x1="5.72302"
       y1="2"
       x2="44.8738"
       y2="50.4723"
       gradientUnits="userSpaceOnUse">
      <stop
         stop-color="#485BFF"
         id="stop21" />
      <stop
         offset="1"
         stop-color="#FF59F8"
         id="stop23" />
    </linearGradient>
    <linearGradient
       id="paint0_linear-3"
       x1="0.0109863"
       y1="0.403076"
       x2="7.86514"
       y2="22.5833"
       gradientUnits="userSpaceOnUse">
      <stop
         stop-color="#485BFF"
         id="stop747" />
      <stop
         offset="1"
         stop-color="#FF59F8"
         id="stop749" />
    </linearGradient>
    <linearGradient
       inkscape:collect="always"
       xlink:href="#paint0_linear-3"
       id="linearGradient856"
       gradientUnits="userSpaceOnUse"
       x1="0.0109863"
       y1="0.403076"
       x2="7.86514"
       y2="22.5833" />
    <linearGradient
       inkscape:collect="always"
       xlink:href="#paint0_linear-3"
       id="linearGradient858"
       gradientUnits="userSpaceOnUse"
       x1="0.0109863"
       y1="0.403076"
       x2="7.86514"
       y2="22.5833" />
    <linearGradient
       inkscape:collect="always"
       xlink:href="#paint0_linear-3"
       id="linearGradient860"
       gradientUnits="userSpaceOnUse"
       x1="0.0109863"
       y1="0.403076"
       x2="7.86514"
       y2="22.5833" />
  </defs>
  <g
     style="fill:none"
     id="g774"
     transform="translate(12.290405,12.686589)">
    <path
       d="M 11.9799,4.20629 9.9851,14.2363 H 7.22591 L 7.41234,13.2482 C 6.57961,14.0064 5.55423,14.3855 4.33621,14.3855 3.5532,14.3855 2.83233,14.2053 2.1736,13.8448 1.51487,13.4844 0.986648,12.9686 0.588926,12.2974 0.203633,11.6139 0.0109863,10.8122 0.0109863,9.89247 0.0109863,8.7863 0.253348,7.792 0.738072,6.90956 1.23522,6.01468 1.90638,5.31867 2.75154,4.82152 3.5967,4.31194 4.52886,4.05715 5.54802,4.05715 c 1.54117,0 2.62869,0.50336 3.26256,1.51009 L 9.07159,4.20629 Z M 5.23108,11.9805 c 0.57173,0 1.08131,-0.1367 1.52875,-0.4101 C 7.20726,11.2845 7.55527,10.893 7.80385,10.3958 8.05242,9.89868 8.17671,9.32696 8.17671,8.68066 8.17671,7.99708 7.97164,7.45642 7.56149,7.0587 7.16376,6.66098 6.60447,6.46212 5.8836,6.46212 5.31187,6.46212 4.80229,6.60505 4.35485,6.89091 3.90742,7.16435 3.55941,7.54964 3.31083,8.04679 3.06226,8.54394 2.93797,9.11567 2.93797,9.76197 c 0,0.68363 0.19886,1.22423 0.59658,1.62193 0.41015,0.3977 0.97566,0.5966 1.69653,0.5966 z"
       fill="url(#paint0_linear)"
       id="path741"
       style="fill:url(#linearGradient856)" />
    <path
       d="m 15.5861,14.3855 c -0.87,0 -1.6966,-0.0932 -2.4796,-0.2797 -0.7706,-0.1988 -1.3734,-0.4536 -1.8084,-0.7643 l 1.1186,-2.1067 c 0.435,0.2858 0.9633,0.5158 1.5847,0.6898 0.6339,0.174 1.2677,0.261 1.9016,0.261 0.6587,0 1.1497,-0.0808 1.4728,-0.2424 0.3232,-0.174 0.4847,-0.4163 0.4847,-0.7271 0,-0.2485 -0.1429,-0.4288 -0.4287,-0.5406 C 17.1459,10.5636 16.686,10.4456 16.0522,10.3213 15.3313,10.1845 14.7347,10.0354 14.2624,9.87383 13.8025,9.71225 13.3986,9.45125 13.0506,9.09081 12.715,8.71795 12.5472,8.21458 12.5472,7.58071 c 0,-1.10616 0.4599,-1.96996 1.3796,-2.5914 0.9322,-0.62144 2.1502,-0.93216 3.6541,-0.93216 0.696,0 1.3734,0.07457 2.0321,0.22371 0.6587,0.14915 1.218,0.35422 1.6779,0.61523 l -1.044,2.12532 C 19.4266,6.51183 18.4385,6.25704 17.2826,6.25704 c -0.6339,0 -1.1186,0.09322 -1.4542,0.27965 -0.3231,0.18643 -0.4847,0.42258 -0.4847,0.70844 0,0.26101 0.1429,0.45365 0.4288,0.57794 0.2859,0.11186 0.7644,0.23615 1.4355,0.37287 0.7085,0.13671 1.2864,0.28586 1.7339,0.44743 0.4598,0.14915 0.8575,0.40394 1.1931,0.76438 0.3356,0.36043 0.5034,0.85135 0.5034,1.47285 0,1.1186 -0.4723,1.9824 -1.4169,2.5914 -0.9322,0.609 -2.144,0.9135 -3.6354,0.9135 z"
       fill="url(#paint1_linear)"
       id="path743"
       style="fill:url(#linearGradient858)" />
    <path
       d="m 28.5664,8.5688 3.449,5.6675 H 28.641 l -2.3863,-3.8964 -1.7712,1.4728 -0.4847,2.4236 H 21.0905 L 23.8497,0.403076 h 2.9083 l -1.5474,7.736934 4.81,-3.93372 h 3.7845 z"
       fill="url(#paint2_linear)"
       id="path745"
       style="fill:url(#linearGradient860)" />
  </g>
</svg>
